<?xml version="1.0" encoding="utf-8"?>
<!-- Generator: Adobe Illustrator 22.0.0, SVG Export Plug-In . SVG Version: 6.00 Build 0)  -->
<svg version="1.1" id="Layer_1" xmlns="http://www.w3.org/2000/svg" xmlns:xlink="http://www.w3.org/1999/xlink" x="0px" y="0px"
	 viewBox="0 0 89 82.7" style="enable-background:new 0 0 89 82.7;" xml:space="preserve">
<style type="text/css">
	.st0{fill:#FFFFFF;}
	.st1{font-family:'PTSans-Bold';}
	.st2{font-size:17.668px;}
</style>
<path class="st0" d="M75.1,7.8l0.3-0.4c0.3-0.4,0.5-1,0.7-1.7c0.2-1.1,0.3-2.3,0-3.6c-0.5-2.8,0.2-2.9,2.2,0
	c0.2,0.2,0.3,0.4,0.4,0.6c0.2,0.3,0.4,0.9,0.7,1.6C79.8,5,80,5.6,80.1,6.1c0.2,0.7,0.2,1.4,0.1,2c0,0.2-0.1,0.6-0.2,1l-0.4,0.8
	c-0.2,0.3-0.6,0.7-1.1,1.2c-0.5,0.4-1.1,1-1.8,1.6c0.8,0.4,1.6,0.8,2.4,1.3c0.1-0.2,0.2-0.3,0.4-0.5c0.3-0.5,0.6-0.8,0.7-1.1
	l0.2-0.2l0.5-0.9c0-0.1,0.1-0.3,0.3-0.7l0.2-0.7l0.1-1.4V8.3h0l-0.1-4.5c-0.2-1.2,0.4-1.2,1.9,0c0.3,0.3,0.6,0.6,0.9,0.9
	c0.4,0.6,0.8,1.1,1.1,1.8c0.2,0.6,0.3,1,0.3,1.2l0.1,0.9c0,0.5,0,1,0,1.4c-0.1,1.3-0.5,2.6-1.1,3.9c-0.6,1.2-1.2,2.5-1.8,3.8
	c0,0.1-0.1,0.1-0.1,0.2c0,0.1,0.1,0.1,0.1,0.2l0.8,1.5c0.9,1.7,1.9,4.1,3.2,7.2l0.8,1.8l0.1,0.5l0,0.2v0.3c0,0.1-0.1,0.3-0.1,0.5
	c-0.1,0.3-0.3,0.5-0.5,0.7c-0.1,0.1-0.2,0.2-0.3,0.2l-0.6,0.5c-0.3,0.2-0.5,0.4-0.6,0.6l-0.7,0.6c-0.6,0.6-1.2,1.1-1.6,1.3
	c-0.6,0.3-1.3,0.4-2.1,0.2c-0.3,0-0.8-0.2-1.6-0.5c-0.5-0.2-1.3-0.7-2.5-1.4c-1.5-0.8-2.6-1.3-3.4-1.5c0,0-0.4-0.1-1-0.2
	c-0.3,0.4-0.7,0.9-1,1.5c-0.4,0.7-0.9,1.5-1.3,2.5c-0.4,1-1.1,2.5-1.9,4.5c-0.3,0.8-0.6,1.5-0.9,2.2c0.1,0.6,0.2,1.2,0.2,2
	c0,0.5,0,1.8,0,4c0,0.9,0,1.6,0,2.2c0.1,0.9,0.2,1.7,0.3,2.3c0.2,1.1,0.5,2,0.8,2.7c0.2,0.3,0.4,0.6,0.6,0.9
	c0.2,0.2,0.5,0.4,0.8,0.6c0.1,0.1,0.1,0.1,0.2,0.1h0.6c0.3,0,0.6,0,0.7,0.1c0.3,0.1,0.6,0.3,0.8,0.5c0.2,0.2,0.4,0.5,0.6,0.8
	c0.2,0.3,0.3,0.6,0.3,0.9c0.1,0.4,0.1,0.8,0.1,1.3v0c5.7,0.2,8.6,0.5,8.6,0.8s-3.1,0.6-9.2,0.8c-0.3-1.4-0.6-2.3-0.7-2.5
	c-0.2-0.4-0.4-0.7-0.6-0.8l-0.1-0.1h-0.1c-0.1,0-0.2,0-0.3,0l-0.6,0c-0.4,0.1-0.7,0-1-0.1c-0.6-0.3-1-0.6-1.3-0.9
	c-0.4-0.4-0.8-0.9-1.1-1.4c-0.6-1-1-2.1-1.2-3.4c-0.1-0.9-0.2-1.8-0.3-2.7c0-0.7,0-1.5,0.1-2.5c0.1-0.6,0.1-1.3,0.2-2.2
	c0.1-0.3,0.1-0.6,0.1-0.9c-0.5,1-1.1,1.8-1.6,2.5c-0.6,0.7-1.2,1.3-1.7,1.8c-0.1,0.1-0.1,0.1-0.2,0.2l0.5,1.1
	c1.2,3.4,1.9,5.2,1.9,5.3l0.3,0.9l0.5,0.4c0.1,0,0.2,0.1,0.3,0.2l0.1,0.1l0,0.1h0l1.1,0.6c0.5,0.3,0.8,0.6,1.1,0.8
	c0.3,0.2,0.5,0.5,0.7,1c0.1,0.2,0.4,1,0.8,2.5c-3.9,0.2-8.2,0.2-12.8,0.3c0,0.1-0.1,0.1-0.1,0.1c0,0,0-0.1,0-0.1c-0.1,0-0.2,0-0.3,0
	c-0.6-1.7-1-2.6-1.2-2.6c-0.3-0.1-0.6-0.2-0.8-0.3c-0.4-0.2-0.7-0.4-1-0.6c-0.2-0.2-0.4-0.4-0.5-0.5c-0.1-0.1-0.2-0.2-0.3-0.3
	c-0.1-0.1-0.2-0.3-0.2-0.5l-1-3.9c-0.1-0.9-0.2-1.3-0.2-1.4l-0.1-0.9c0-1.8,0.8-2.6,2.5-2.5c0.2,0,0.4,0.1,0.7,0.2l1.1,0.2
	c0.4,0.1,0.7,0.1,0.9,0.1h0.1c0.3,0,0.8-0.1,1.5-0.4c0.4-0.2,1-0.4,1.8-0.8l0.8-0.5c0.2-0.2,0.4-0.4,0.8-0.6
	c0.4-0.4,0.9-0.8,1.4-1.4c0.7-0.9,1.4-2,2.2-3.3c0.4-0.8,1-2,1.8-3.5c0.7-1.5,1.2-2.5,1.5-3.1c1-1.8,1.8-3.1,2.6-3.9
	c0.5-0.6,0.9-1,1.2-1.3c0.1,0,0.1-0.1,0.1-0.1c0.3-0.1,0.8-0.1,1.3,0c0.6,0,1.1,0.1,1.8,0.2c0.6,0.2,1.4,0.4,2.3,0.8
	c0.3,0.1,0.7,0.2,1.2,0.5c0.5,0.2,1,0.4,1.3,0.5c0.7,0.2,1.1,0.3,1.3,0.3c0.4,0,0.8,0,1-0.2c0.2-0.1,0.6-0.4,1.1-0.9l0.6-0.6
	c0.2-0.2,0.4-0.4,0.7-0.7l0.6-0.5l-0.6-1.4c-1.4-3.4-2.4-5.8-3-7.2l-0.7-1.5c-0.1-0.2-0.2-0.4-0.4-0.7c0.7-1.2,1.2-2.2,1.4-2.8
	c0.3-0.6,0.6-1.5,0.9-2.6c0.3-1.1,0.5-2.1,0.5-3.2c0-0.2,0-0.6,0-1l-0.2-0.4c-0.7,2.6-1.8,4.8-3.4,6.7l0.1,1.9
	c-1.2-1.4-2.6-2.5-4.3-3.4c-0.2,0.1-0.3,0.3-0.4,0.4c-0.2,0.4-0.3,0.8-0.3,1.1c0,0.2,0.1,0.3,0.1,0.4c0.1,0.1,0.1,0.2,0.2,0.4
	c0.1,0.2,0.1,0.3,0.1,0.4c0,0-0.2,0-0.4-0.1c-0.3-0.2-0.6-0.4-0.7-0.7c-0.1-0.2-0.2-0.5-0.2-0.8c0-0.4,0.1-0.7,0.2-1
	c0.2-0.6,0.6-1.2,1.2-1.9c0.7-0.8,1.3-1.4,1.7-1.8c0.3-0.4,0.6-0.7,0.6-1l0.2-0.5c0.1-0.3,0.1-0.4,0.1-0.5c0-0.3,0-0.7-0.1-1.2
	c-0.1-0.1-0.1-0.2-0.2-0.4v0c-0.2,1-0.6,1.9-1.1,2.6l-0.5,0.6L76,10c-0.4,0.2-0.8,0.4-1.1,0.6c-0.9,0.3-1.5,0.5-1.9,0.7
	c-0.3,0.1-0.5,0.2-0.7,0.3c-0.3,0.2-0.5,0.3-0.6,0.4l-0.1,0.1l0,0.1h0l0,0.1l-0.2,0.8c-0.1,0.6-0.2,1.2-0.2,1.8c0,0.6,0,1.2,0,1.6
	c0,0.3,0,0.6,0,0.7v0.3l0.1,0.2c0,0.1,0.1,0.1,0.1,0.1c0.1,0.1,0.2,0.2,0.4,0.3c0.2,0.1,0.4,0.3,0.8,0.5c0.1,0,0.6,0.2,1.5,0.7
	c0.8,0.4,1.2,0.6,1.2,0.7c0,0.2-0.5,0.2-1.4,0.1c-0.7-0.1-1.2-0.2-1.6-0.3c-0.4-0.1-0.8-0.2-1.1-0.4l-0.6-0.3
	c-0.2-0.2-0.5-0.4-0.7-0.6l-0.1-0.3L69.7,18c-0.1-0.2-0.1-0.4-0.1-0.5c-0.1-0.4-0.1-0.7-0.1-0.9c0-0.5,0-1.1,0-1.9s0-1.4,0.1-2
	c0.1-0.6,0.2-1,0.2-1.1l0.1-0.3c0.1-0.1,0.1-0.2,0.1-0.3c-1.2-0.2-2-0.3-2.4-0.3l-1.9-0.1c-0.3,0-0.5,0-0.6,0l-1.4,0.2l-0.6,0.2
	c-0.1,0.1-0.3,0.2-0.6,0.3c-0.6,0.4-1.5,1.1-2.6,2.1c-1.3,1.1-2.3,1.9-3.1,2.4c-0.7,0.4-1.4,0.6-2,0.8l-2,0.3
	c-1.6,0.2-2.8,0.6-3.6,1.1c-0.2,0.1-0.5,0.3-0.8,0.6c-0.2,0.1-0.4,0.3-0.8,0.6c-0.2,0.2-0.4,0.4-0.8,0.8l-0.8,0.8
	C44.4,22,43,23,41.5,23.6C41,23.8,40.6,24,40.3,24l-2.4,0.6c-0.2,0-0.6,0.1-1.2,0.1l-1.2,0.1c-0.8,0.1-1.2,0.1-1.2,0.1
	c-0.6,0-1.4,0-2.5,0c-1-0.1-1.8-0.1-2.4,0c-0.8,0-1.5,0.1-2.1,0.3c-0.7,0.2-1.3,0.5-1.9,0.8c-0.2,0.1-0.4,0.3-0.9,0.7
	c-0.5,0.3-0.8,0.6-0.9,0.7c-1.2,1.1-2.1,2.3-2.6,3.4c-0.5,1.1-0.9,2.5-1.2,4.2c0,0,0,0.4-0.1,1.2l-0.2,1.1c0,0.2-0.1,0.6-0.1,1.2
	c-0.1,0.5-0.2,0.8-0.2,1.2c-0.2,0.9-0.5,1.6-0.9,2.3c-0.3,0.6-0.8,1.1-1.5,1.7c-0.4,0.4-0.9,0.8-1.6,1.2c-0.8,0.6-1.3,0.9-1.5,1
	l-0.9,0.8L12.4,47c-0.3,0.4-0.6,0.9-0.8,1.4c-0.4,0.7-0.7,1.7-1.1,3c-0.2,0.5-0.4,1.5-0.7,2.9c-0.2,0.8-0.4,1.7-0.6,2.5l-0.3,1.1
	c-0.1,0.4-0.2,0.8-0.2,1c0,0.2,0.1,1,0.5,2.4c-0.2,0-0.3,0-0.5,0c-3.7-0.2-5.6-0.4-5.6-0.7c0-0.2,1.6-0.4,4.8-0.6
	c-0.1-0.4-0.2-0.8-0.1-1.2c0-0.3,0.1-0.6,0.2-1.1c0.1-0.5,0.2-0.9,0.2-1.2L8.6,54c0.3-1.5,0.5-2.5,0.6-3c0.3-1.3,0.6-2.4,1-3.3
	c0.2-0.6,0.5-1.2,0.9-1.7l0.7-0.8c0.3-0.3,0.5-0.5,0.7-0.6c0.2-0.2,0.7-0.6,1.5-1.2c0.6-0.4,1.1-0.8,1.4-1.1
	c0.5-0.5,0.9-0.9,1.1-1.4c0.3-0.5,0.5-1,0.6-1.6c0.1-0.5,0.2-1.2,0.3-2.2l0.4-2.3c0.2-1.9,0.7-3.5,1.3-4.9c0.7-1.5,1.7-2.9,3.2-4.2
	c0.2-0.2,0.5-0.4,0.9-0.8c0.1-0.1,0.1-0.1,0.1-0.1c0-0.1,0-0.1,0-0.1c-0.3-0.6-0.7-1.1-1-1.5c-1.1-1.5-2.2-2.5-3.4-2.8
	c-0.7-0.2-1.5-0.2-2.3,0c-0.5,0.2-0.9,0.3-1.2,0.4c-0.6,0.3-1,0.6-1.2,0.7c-0.2,0.1-0.5,0.4-1,0.9c-0.3,0.4-0.5,0.7-0.6,1
	c-0.2,0.5-0.3,1.4-0.4,2.7l-0.3,3c-0.2,1-0.6,1.9-1.1,2.6C10.3,32.3,9.7,32.8,9,33c-0.6,0.2-1.2,0.2-1.6,0c-0.4-0.1-0.7-0.2-0.9-0.4
	c-0.2-0.2-0.3-0.3-0.2-0.4c0-0.1,0.2-0.1,0.4-0.1c0.1,0,0.1,0,0.2,0c0-0.2,0-0.3,0-0.5c0-0.7,0-1.3-0.1-1.8v-0.3l0-0.2
	c0-0.1-0.1-0.1-0.1-0.1l-0.1,0c-0.1,0-0.2,0-0.4,0c-0.8,0.1-1.3,0.1-1.4,0.1H3.7l0,0l0.1,0.3l0.3,0.5c0,0,0.2,0.3,0.6,0.7
	c0.2,0.2,0.5,0.6,1,1c0.3,0.2,0.4,0.4,0.4,0.6c0,0.1-0.2,0.2-0.6,0.2c-0.5,0-1.1-0.2-1.7-0.5c-0.4-0.2-0.7-0.5-0.9-0.7
	c-0.1-0.1-0.3-0.3-0.5-0.6l-0.2-0.3c-0.1-0.1-0.2-0.3-0.3-0.5c-0.4-0.6-0.7-1.5-1-2.4L0,25.5l2.5,1.3c0.1,0.1,0.3,0.2,0.5,0.3
	c0.5,0.1,0.8,0.1,0.8,0.1h0.4c0.1,0,0.2,0,0.4,0H6c0.4,0,0.7,0,1,0.1c0.4,0.2,0.7,0.4,0.9,0.8c0.2,0.3,0.3,0.7,0.3,1.1l0,0.8
	c-0.1,0.6-0.3,1.2-0.6,1.9c0,0.1,0,0.1,0,0.2c0.4-0.1,0.7-0.2,1.1-0.4c0.4-0.2,0.8-0.6,1.1-1.1c0.3-0.6,0.5-1.2,0.6-1.9l0-2.7
	c0-0.9,0-1.5,0-1.7c0.1-0.7,0.2-1.3,0.4-1.9c0.2-0.6,0.5-1.2,1-1.8c0.5-0.6,0.9-1,1.4-1.3c0.3-0.3,0.8-0.6,1.5-0.9
	c0.6-0.3,1.1-0.5,1.6-0.6c1.2-0.2,2.3-0.1,3.3,0.3c0.9,0.4,1.8,1,2.5,1.8c0.6,0.6,1,1.3,1.5,2.1c0.3,0.6,0.6,1.3,0.9,2
	c0.7-0.5,1.5-0.9,2.4-1.1c0.7-0.2,1.6-0.3,2.5-0.4c0.6,0,1.4,0,2.5,0c1.1,0.1,1.9,0.1,2.4,0.1l1.2-0.1c0.5,0,0.9-0.1,1.2-0.1
	l2.3-0.3l2-0.6c1.3-0.6,2.4-1.3,3.5-2.4c0.9-0.8,1.5-1.4,1.8-1.6c0.7-0.5,1.3-1,1.9-1.3l0.5-0.3c0.1-0.1,0.3-0.2,0.6-0.3l0.6-0.1
	c0.2-0.1,0.4-0.1,0.6-0.1c0.6-0.2,0.9-0.2,1.1-0.2l3-0.4c0.4-0.1,0.9-0.2,1.6-0.5c0.6-0.4,1.6-1.1,2.9-2.1c1.2-1,2.2-1.7,3-2.1
	l0.8-0.4c0.1,0,0.3-0.1,0.8-0.2l0.8-0.2h1.5l2,0.3c0.8,0.1,1.8,0.4,3,0.7c0.2-0.2,0.4-0.3,0.7-0.6c0.3-0.1,0.6-0.3,1-0.5
	c0.5-0.2,1.1-0.4,1.9-0.7c0.3-0.1,0.5-0.3,0.7-0.4L75.1,7.8z M56.5,33.9c0.1,0.1,0.2,0.3,0.3,0.6v0.7c0,0.1,0,0.4,0.1,0.9
	c0,0.2,0,0.5,0.1,1.1C57,38,57,38.4,57,38.6l0,1.5l-0.1,0.9c-0.1,0.3-0.2,0.6-0.3,0.9c-0.2,0.6-0.4,1.1-0.8,1.6
	c-0.2,0.3-0.5,0.7-0.9,1.2c-0.7,0.9-1.2,1.4-1.3,1.7c-0.2,0.3-0.5,0.8-0.8,1.3c-0.2,0.3-0.4,0.5-0.5,0.5c-0.2,0-0.3-0.2-0.3-0.7
	c0-0.6,0.1-1.2,0.3-1.9c0.2-0.6,0.6-1.4,1.2-2.3c0.7-1.1,1.1-1.9,1.3-2.3l0.2-0.6c0-0.2,0.1-0.4,0.1-0.6l0.2-2.6
	c0.1-0.6,0.1-1,0.1-1.2c0.1-0.4,0.2-0.8,0.3-1c0.1-0.4,0.2-0.6,0.3-0.7C56.2,34,56.4,33.9,56.5,33.9z M46.3,40.9
	c0.1-0.6,0.1-0.9,0.1-1.2c0.1-0.6,0.2-1,0.3-1c0.2,0,0.3,0.3,0.6,0.9c0,0.1,0.1,0.5,0.3,1.2c0,0.3,0.1,0.9,0.1,1.6
	c0,0.4,0,1.7,0,3.9l0.2,3.3c0,0.1,0,0.3,0.1,0.5l0.2,0.6c0.2,0.5,0.5,1.2,1,1.9l1.2,1.8c1.1,1.4,1.8,2.5,2.1,3.3
	c0.2,0.5,0.4,1.8,0.8,4c-3.3,0-6.8,0-10.5,0c-0.9,0-1.8,0-2.7,0c-1.5-1.8-2.3-2.8-2.4-2.9l-0.6-1c-0.4-0.8-0.7-1.5-1-2.3
	c-0.2-0.6-0.2-1.1-0.3-1.3c-0.1-0.4-0.1-0.7-0.1-0.9l0.1-0.9c0.2-0.6,0.4-1.1,0.7-1.5c0.3-0.4,0.7-0.7,1.1-1
	c0.3-0.2,0.7-0.4,1.1-0.7c0.2-0.1,0.5-0.2,0.9-0.5c0.6-0.3,1-0.6,1.2-0.9c0.2-0.4,0.4-0.8,0.5-1.2c0.1-0.4,0-0.8,0-1.3L41,44.3
	c0-0.1,0-0.2,0-0.2c-0.5-0.3-0.8-0.4-1-0.5c-0.8-0.5-1.6-0.8-2.4-1.1c-0.3-0.1-1-0.3-2.1-0.6c-0.7-0.2-1.2-0.4-1.5-0.5
	c-0.3-0.2-0.5-0.3-0.6-0.5c0-0.2,0.2-0.3,0.6-0.4c0.4-0.2,0.9-0.3,1.7-0.3c0.8,0,1.6,0.1,2.4,0.3c0.9,0.2,1.8,0.5,2.8,1
	c1.4,0.7,2.9,1.7,4.4,3.1c0.2,0.1,0.3,0.2,0.5,0.4c0.1-0.6,0.2-1.5,0.3-2.4L46.3,40.9z M44.6,45.8c-0.5-0.2-1.2-0.6-2.1-1.1
	c-0.1-0.1-0.2-0.1-0.3-0.2c0.1,0.1,0.1,0.3,0.2,0.4c0.2,0.6,0.4,1.2,0.4,1.7c0,0.8-0.1,1.5-0.5,2.3l-0.4,0.6
	c-0.2,0.2-0.3,0.4-0.4,0.5c-0.2,0.2-0.5,0.4-0.9,0.8c-0.2,0.1-0.5,0.3-0.9,0.6c-0.4,0.2-0.6,0.4-0.8,0.5c-0.2,0.1-0.4,0.3-0.6,0.6
	c-0.1,0.2-0.2,0.4-0.3,0.7l0,0.2c0,0,0,0.1,0,0.2c0,0.1,0,0.2,0,0.4c0,0.2,0.1,0.5,0.2,1c0.2,0.7,0.4,1.3,0.7,2
	c0.1,0.2,0.2,0.5,0.4,0.9c0.2,0.3,0.3,0.5,0.4,0.6l0.5,0.8c2.3-0.1,3.8-0.1,4.5-0.1c1.8,0.1,4.1,0.2,6.9,0.2
	c-0.1-0.2-0.3-0.4-0.4-0.6c-0.2-0.4-1-1.4-2.3-2.9c-0.6-0.7-1-1.3-1.4-1.8c-0.6-1-1-1.8-1.2-2.5c0,0-0.1-0.3-0.2-0.7
	c-0.1-0.3-0.2-0.6-0.2-0.7l-0.1-0.7l0-3.2C45.4,46.1,45,46,44.6,45.8z M53.4,50.6l0.9,5.8c0,0,0.1,0.2,0.4,0.5
	c0.2,0.2,0.4,0.4,0.6,0.5c0.2,0.1,0.5,0.3,0.8,0.5c0.3,0.2,0.5,0.4,0.8,0.6l0.4,0.7c3.8,0.1,7.3,0.2,10.6,0.3
	c-0.1-0.1-0.2-0.1-0.3-0.1c-0.2-0.1-0.4-0.2-0.9-0.4c-0.5-0.2-0.9-0.3-1.3-0.5l-1.2-0.8l-0.1-0.1c-0.2-0.2-0.4-0.3-0.5-0.6l-0.3-0.5
	l-0.3-0.8c-0.8-2.3-1.2-4.2-1.3-5.7c0-0.3,0-0.6,0-0.9l-0.5,0.4l-0.3,0.1c-0.8,0.4-1.4,0.6-1.9,0.8c-0.5,0.2-0.8,0.3-1,0.4
	c-0.4,0.1-0.7,0.2-1.1,0.2c-0.4,0.1-0.9,0-1.5-0.1l-1.2-0.4c-0.4-0.1-0.7-0.2-0.8-0.1h0L53.4,50.6L53.4,50.6z M33.7,32.2
	c0,0.1-0.1,0.2-0.3,0.4c-0.3,0.3-0.5,0.6-0.6,0.9c-0.4,0.8-0.8,2.2-1.1,4.3l-0.2,1.5c-0.1,0.7-0.2,1.3-0.3,1.8L31,41.6L30.3,43v0
	h0.1c0.7,0.3,1.4,0.7,1.9,1.2c0.5,0.4,0.9,0.8,1.2,1.2c0.5,0.6,0.8,1.3,0.9,2.1c0.2,0.7,0.1,1.6,0,2.5l-0.6,2c-0.2,0.9,0,2,0.6,3.4
	c0.1,0.3,0.5,1.4,1.3,3.1c0.1,0.2,0.5,1.3,1.3,3.3c-0.6,0-1.2,0-1.7,0c-4.8,0-9.3-0.1-13.4-0.1c-2.6-0.1-5-0.2-7.3-0.2
	c-0.2,0-0.3,0-0.5,0c-0.2,0-0.3,0-0.5,0c-0.1,0-0.1,0-0.1,0c-0.8-1.2-1.2-1.8-1.3-1.9l-1.7-0.8h0l0.8-1.9c0.2-0.4,0.4-1.5,0.8-3.1
	c0.1-0.6,0.3-1.3,0.5-1.9c0.2-0.6,0.6-1.3,1.1-1.9l0.3-0.5l0.6-0.6l1.4-1.2c0.1,0,0.4-0.2,0.9-0.6c1-0.6,2.3-1.2,3.9-1.7l3.8-1.2
	c1.4-0.5,2.4-1,3.1-1.6c0.4-0.3,0.8-0.7,1-1.1l0.3-0.4l0.3-0.6l0.1-0.4c0.2-0.4,0.3-0.8,0.5-1.4c0.2-0.7,0.3-1.3,0.4-1.6
	c0.2-1.1,0.5-2,0.8-2.6c0.3-0.8,0.7-1.4,1.1-1.9c0.4-0.4,0.7-0.6,1.1-0.7C33.5,32,33.7,32,33.7,32.2z M31.3,45.5l-1.4-1.7
	c-0.1-0.1-0.1-0.1-0.1-0.1c-0.2,0.3-0.5,0.6-0.9,0.9c-0.9,0.8-2.1,1.4-3.6,1.9c-0.6,0.2-1.2,0.5-1.9,0.7l-1.9,0.6
	c-1.4,0.5-2.6,1-3.5,1.5L15.7,51l-0.6,0.6c-0.5,0.6-1,1.6-1.3,2.9C13.3,56,13,57,12.7,57.6l-0.2,0.3l-0.1,0.2l0.4,0.3
	c0.3,0.2,0.6,0.4,0.9,0.7c0.2,0.2,0.4,0.4,0.5,0.6c0.2,0,0.3,0,0.5,0c2.3-0.1,4.8-0.1,7.3-0.2c3.8-0.1,8-0.2,12.4-0.2
	c-0.8-1.1-1.3-2.1-1.7-2.9s-0.6-1.5-0.8-2.1c-0.2-1-0.2-1.9-0.1-2.7c0.1-0.2,0.2-0.5,0.2-0.6l0.4-1.5c0.2-0.6,0.2-1.1,0.2-1.6
	C32.5,47.2,32.1,46.4,31.3,45.5z"/>
<text transform="matrix(1 0 0 1 3.9995 77.8311)" class="st0 st1 st2">POSSIBULL</text>
</svg>
