<?xml version="1.0" encoding="utf-8"?>
<!-- Generator: Adobe Illustrator 22.0.0, SVG Export Plug-In . SVG Version: 6.00 Build 0)  -->
<svg version="1.1" id="Layer_1" xmlns="http://www.w3.org/2000/svg" xmlns:xlink="http://www.w3.org/1999/xlink" x="0px" y="0px"
	 viewBox="0 0 90 60" style="enable-background:new 0 0 90 60;" xml:space="preserve">
<path d="M82.5,0h-75C3.4,0,0,3.4,0,7.5v45C0,56.6,3.4,60,7.5,60h75c4.1,0,7.5-3.4,7.5-7.5v-45C90,3.4,86.6,0,82.5,0z M81.5,5
	l-0.7,0.7L45,36.7L9.2,5.7L8.5,5H81.5z M5.9,50.6l-0.1,0.1L5,51.5v-43l0.7,0.7l0.1,0.1L29.6,30L5.9,50.6z M8.5,55l0.7-0.7l24.3-21
	l9.9,8.6c0.5,0.4,1.1,0.6,1.6,0.6s1.2-0.2,1.6-0.6l9.9-8.6l24.3,21l0.7,0.7H8.5z M85,51.5l-0.7-0.7l-0.1-0.1L60.4,30L84.2,9.4
	l0.1-0.1L85,8.6C85,8.6,85,51.5,85,51.5z"/>
</svg>
