<?xml version="1.0" encoding="utf-8"?>
<!-- Generator: Adobe Illustrator 22.0.0, SVG Export Plug-In . SVG Version: 6.00 Build 0)  -->
<svg version="1.1" id="Layer_1" xmlns="http://www.w3.org/2000/svg" xmlns:xlink="http://www.w3.org/1999/xlink" x="0px" y="0px"
	 viewBox="0 0 88.1 88.1" style="enable-background:new 0 0 88.1 88.1;" xml:space="preserve">
<style type="text/css">
	.st0{fill:#0A81D1;}
</style>
<path class="st0" d="M88.1,82.4L65.7,60.1c11.7-14.5,10.8-35.8-2.7-49.3C56.1,3.8,46.8,0,36.9,0c-9.9,0-19.1,3.8-26.1,10.8
	C3.8,17.8,0,27.1,0,36.9s3.8,19.1,10.8,26.1c7,7,16.3,10.8,26.1,10.8c8.5,0,16.6-2.9,23.1-8.1l22.4,22.4L88.1,82.4z M36.9,65.9
	c-7.7,0-15-3-20.5-8.5C11,51.9,8,44.7,8,36.9s3-15,8.5-20.5C21.9,11,29.2,8,36.9,8c7.7,0,15,3,20.5,8.5c11.3,11.3,11.3,29.6,0,40.9
	C51.9,62.9,44.7,65.9,36.9,65.9z"/>
</svg>
