<?xml version="1.0" encoding="utf-8"?>
<!-- Generator: Adobe Illustrator 22.0.0, SVG Export Plug-In . SVG Version: 6.00 Build 0)  -->
<svg version="1.1" id="Layer_1" xmlns="http://www.w3.org/2000/svg" xmlns:xlink="http://www.w3.org/1999/xlink" x="0px" y="0px"
	 viewBox="0 0 50 62" style="enable-background:new 0 0 50 62;" xml:space="preserve">
<style type="text/css">
	.st0{fill:#F8F8FF;}
</style>
<path class="st0" d="M45,26h-2v-7.5C43,8.3,34.7,0,24.5,0S6,8.3,6,18.5V26H5c-2.8,0-5,2.2-5,5v26c0,2.8,2.2,5,5,5h40
	c2.8,0,5-2.2,5-5V31C50,28.2,47.8,26,45,26z M8,18.5C8,9.4,15.4,2,24.5,2S41,9.4,41,18.5V26h-4v-7.5C37,11.6,31.4,6,24.5,6
	S12,11.6,12,18.5V26H8V18.5z M35,26H14v-7.5C14,12.7,18.7,8,24.5,8S35,12.7,35,18.5V26z M48,57c0,1.7-1.3,3-3,3H5c-1.7,0-3-1.3-3-3
	V31c0-1.7,1.3-3,3-3h40c1.7,0,3,1.3,3,3V57z M25,36c-2.2,0-4,1.8-4,4v8c0,2.2,1.8,4,4,4s4-1.8,4-4v-8C29,37.8,27.2,36,25,36z M27,48
	c0,1.1-0.9,2-2,2s-2-0.9-2-2v-8c0-1.1,0.9-2,2-2s2,0.9,2,2V48z"/>
</svg>
